Coordinates
version=1
nRows=15
nColumns=46
inDegrees=yes

Units are S.I. units (second, meters, Newtons, ...)
Angles are in degrees.

endheader
time	pelvis_tilt	pelvis_list	pelvis_rotation	pelvis_tx	pelvis_ty	pelvis_tz	bb_angle	bb_tx	bb_ty	bb_tz	hip_flexion_r	hip_adduction_r	hip_rotation_r	knee_angle_r	knee_angle_r_beta	ankle_angle_r	subtalar_angle_r	mtp_angle_r	crank_angle_r	hip_flexion_l	hip_adduction_l	hip_rotation_l	knee_angle_l	knee_angle_l_beta	ankle_angle_l	subtalar_angle_l	mtp_angle_l	crank_angle_l	lumbar_extension	lumbar_bending	lumbar_rotation	arm_flex_r	arm_add_r	arm_rot_r	elbow_flex_r	pro_sup_r	wrist_flex_r	wrist_dev_r	arm_flex_l	arm_add_l	arm_rot_l	elbow_flex_l	pro_sup_l	wrist_flex_l	wrist_dev_l
      0.00500000	    -17.37357175	     -2.93831123	     -6.02623770	      0.17377891	      1.04231618	     -0.30770120	      0.00000000	      0.50000000	      0.00000000	      0.25000000	     88.23240659	      0.89376625	      0.72650932	     87.22887964	      1.52243115	      7.56217523	     -6.10597558	      0.00000000	      0.00000000	     57.50537942	    -13.31281840	     -0.39976836	     76.37579783	      1.33300914	    -14.12193866	    -11.91299790	      0.00000000	      0.00000000	    -54.59611592	     -2.07570104	      6.63259631	     89.77192391	     -1.68722016	     26.83881010	     30.26126780	     21.96266806	      0.00000000	      0.00000000	     89.56248019	      0.34477334	     29.44058188	     30.17549645	     23.30719856	      0.00000000	      0.00000000
      0.01000000	    -17.42370794	     -2.94622553	     -6.00938347	      0.17370155	      1.04230980	     -0.30768709	      0.00000000	      0.50000000	      0.00000000	      0.25000000	     88.27928493	      0.89823757	      0.72917686	     87.24018887	      1.52262854	      7.62753623	     -6.09345405	      0.00000000	      0.00000000	     57.64238542	    -13.30914471	     -0.35706796	     76.37377681	      1.33297387	    -14.39403662	    -11.92024341	      0.00000000	      0.00000000	    -54.54334518	     -2.05621452	      6.61702654	     89.77224198	     -1.54694673	     26.20455671	     29.89286192	     23.85008285	      0.00000000	      0.00000000	     89.56360893	      0.37449940	     29.10375205	     29.78382714	     25.41241552	      0.00000000	      0.00000000
      0.01500000	    -17.48455291	     -2.96424783	     -5.97107565	      0.17359279	      1.04233192	     -0.30764039	      0.00000000	      0.50000000	      0.00000000	      0.25000000	     88.33297999	      0.88918580	      0.72076192	     87.22683376	      1.52239545	      7.60951344	     -6.14942234	      0.00000000	      0.00000000	     57.74460249	    -13.29861854	     -0.28707993	     76.33220500	      1.33224830	    -14.59257995	    -11.86993767	      0.00000000	      0.00000000	    -54.45609218	     -2.04660590	      6.61805232	     89.77505022	     -2.07911024	     28.70542442	     29.88653472	     22.78965251	      0.00000000	      0.00000000	     89.56905434	      0.04067125	     30.70546893	     29.73250388	     26.10486708	      0.00000000	      0.00000000
      0.02000000	    -17.43289261	     -3.01131781	     -6.10694588	      0.17361728	      1.04214944	     -0.30767569	      0.00000000	      0.50000000	      0.00000000	      0.25000000	     88.33186278	      1.06558193	      0.72249944	     87.30496954	      1.52375917	      7.57866904	     -6.24838359	      0.00000000	      0.00000000	     57.74797055	    -13.46519572	     -0.34258497	     76.44911002	      1.33428868	    -14.68048926	    -11.86784528	      0.00000000	      0.00000000	    -54.48435449	     -2.08698060	      6.69951749	     89.77337992	     -1.90396790	     27.74330384	     29.81741612	     23.61729339	      0.00000000	      0.00000000	     89.56760202	      0.19877104	     29.89833427	     29.50239135	     26.99804719	      0.00000000	      0.00000000
      0.02500000	    -17.32018524	     -3.18588074	     -6.19995769	      0.17342759	      1.04265086	     -0.30731391	      0.00000000	      0.50000000	      0.00000000	      0.25000000	     88.16286073	      1.20173362	      0.53612320	     87.24882400	      1.52277925	      7.58907725	     -6.40713826	      0.00000000	      0.00000000	     57.66799539	    -13.68810002	     -0.26552800	     76.44292200	      1.33418068	    -14.92378982	    -11.96773048	      0.00000000	      0.00000000	    -54.75508258	     -2.01539204	      6.92162944	     89.77244868	     -1.91207305	     26.87801498	     30.53717787	     24.59808081	      0.00000000	      0.00000000	     89.54637344	      0.04830843	     29.04802860	     30.36396353	     27.94938388	      0.00000000	      0.00000000
      0.03000000	    -17.45983613	     -3.07722582	     -6.14751206	      0.17338831	      1.04236842	     -0.30736131	      0.00000000	      0.50000000	      0.00000000	      0.25000000	     88.38395919	      1.10881123	      0.63143752	     87.29771986	      1.52363264	      7.44582770	     -6.36884057	      0.00000000	      0.00000000	     57.83838618	    -13.54521210	     -0.24295455	     76.47217670	      1.33469127	    -14.78089648	    -11.73483582	      0.00000000	      0.00000000	    -54.44351301	     -2.04947717	      6.79969915	     89.77504306	     -2.06905247	     28.79991087	     30.47007923	     19.86398285	      0.00000000	      0.00000000	     89.56863967	      0.04439056	     30.65569181	     29.58902027	     25.80617286	      0.00000000	      0.00000000
      0.03500000	    -17.43461707	     -3.05709831	     -6.12868659	      0.17324328	      1.04231496	     -0.30706021	      0.00000000	      0.50000000	      0.00000000	      0.25000000	     88.40982267	      1.14104562	      0.67372110	     87.32698081	      1.52414334	      7.32958358	     -6.42983841	      0.00000000	      0.00000000	     57.85010268	    -13.55502430	     -0.22814636	     76.49883473	      1.33515654	    -14.83512518	    -11.76415072	      0.00000000	      0.00000000	    -54.45052973	     -2.07849930	      6.74582208	     89.77532771	     -2.00455428	     28.61866888	     30.18709733	     21.09357208	      0.00000000	      0.00000000	     89.56907374	     -0.01498424	     30.47200013	     29.49205252	     26.88713695	      0.00000000	      0.00000000
      0.04000000	    -17.41782050	     -2.98007634	     -6.16586628	      0.17325490	      1.04235415	     -0.30697840	      0.00000000	      0.50000000	      0.00000000	      0.25000000	     88.43131101	      1.17458209	      0.75862912	     87.33274868	      1.52424401	      7.21679598	     -6.45985599	      0.00000000	      0.00000000	     57.80239183	    -13.52812630	     -0.30132822	     76.48944229	      1.33499261	    -14.88608672	    -11.75586592	      0.00000000	      0.00000000	    -54.48645920	     -2.17183692	      6.71597828	     89.77482759	     -1.97013226	     28.13433184	     29.94385772	     22.93536321	      0.00000000	      0.00000000	     89.56909695	     -0.03723799	     30.18630857	     29.46408674	     27.90368342	      0.00000000	      0.00000000
      0.04500000	    -17.17923690	     -3.01729818	     -6.08936611	      0.17296031	      1.04241827	     -0.30697024	      0.00000000	      0.50000000	      0.00000000	      0.25000000	     88.24803665	      1.13082161	      0.76337206	     87.38220003	      1.52510710	      7.12616616	     -6.46885587	      0.00000000	      0.00000000	     57.61576450	    -13.49542270	     -0.24198295	     76.57257163	      1.33644349	    -14.71330680	    -11.63180520	      0.00000000	      0.00000000	    -55.07441924	     -1.78589554	      6.39210906	     89.78316901	     -1.18122960	     26.92798924	     30.83179451	     23.72879498	      0.00000000	      0.00000000	     89.57087291	     -0.74389863	     29.26407220	     30.30504995	     28.66169324	      0.00000000	      0.00000000
      0.05000000	    -17.14801601	     -3.04935505	     -6.11232079	      0.17296919	      1.04240323	     -0.30692967	      0.00000000	      0.50000000	      0.00000000	      0.25000000	     88.23625736	      1.16561367	      0.74687647	     87.39265884	      1.52528964	      7.04159910	     -6.46042085	      0.00000000	      0.00000000	     57.58404787	    -13.54562929	     -0.22175197	     76.62254556	      1.33731570	    -14.54507661	    -11.51175805	      0.00000000	      0.00000000	    -55.10160856	     -1.77044973	      6.43459661	     89.78224316	     -1.11114102	     26.96827093	     31.77183328	     19.05385781	      0.00000000	      0.00000000	     89.57174455	     -0.95903329	     30.31341610	     30.87566670	     25.67120242	      0.00000000	      0.00000000
      0.05500000	    -17.11492557	     -3.00965522	     -6.05142537	      0.17301558	      1.04244493	     -0.30711656	      0.00000000	      0.50000000	      0.00000000	      0.25000000	     88.23303430	      1.07428858	      0.77133644	     87.41876654	      1.52574530	      6.91521347	     -6.60278423	      0.00000000	      0.00000000	     57.52616625	    -13.42497197	     -0.20267552	     76.61497346	      1.33718354	    -14.52816560	    -11.63150145	      0.00000000	      0.00000000	    -55.15831874	     -1.74555834	      6.32392057	     89.78280078	     -0.63522545	     24.78646713	     30.78370914	     23.79409680	      0.00000000	      0.00000000	     89.56001537	     -0.70282422	     28.46507478	     30.61811263	     28.43213340	      0.00000000	      0.00000000
      0.06000000	    -17.10831722	     -3.13358363	     -6.27209682	      0.17309154	      1.04252654	     -0.30686267	      0.00000000	      0.50000000	      0.00000000	      0.25000000	     88.18463215	      1.33670144	      0.67365278	     87.32565199	      1.52412015	      6.81286153	     -6.55792412	      0.00000000	      0.00000000	     57.47200019	    -13.73112122	     -0.28148854	     76.65950583	      1.33796078	    -14.46347633	    -11.85247855	      0.00000000	      0.00000000	    -55.22745298	     -1.82772950	      6.60775492	     89.77933101	     -0.69346966	     24.30487908	     31.14734408	     24.58501633	      0.00000000	      0.00000000	     89.54978922	     -0.66738092	     28.12331657	     30.78653523	     29.00145278	      0.00000000	      0.00000000
      0.06500000	    -17.05767593	     -3.12891678	     -6.30631756	      0.17321865	      1.04254295	     -0.30691972	      0.00000000	      0.50000000	      0.00000000	      0.25000000	     88.15152764	      1.35094734	      0.68212522	     87.34722836	      1.52449673	      6.75263803	     -6.53342116	      0.00000000	      0.00000000	     57.36245672	    -13.75339707	     -0.32293646	     76.69081842	      1.33850729	    -14.20371807	    -11.78323190	      0.00000000	      0.00000000	    -55.25679868	     -1.83567792	      6.63540120	     89.78068262	     -0.63087793	     24.18345332	     30.92046961	     24.87401250	      0.00000000	      0.00000000	     89.54985985	     -0.59557586	     28.02195015	     30.62602109	     29.18736032	      0.00000000	      0.00000000
      0.07000000	    -17.17142332	     -3.10878782	     -6.34838100	      0.17343321	      1.04220022	     -0.30694961	      0.00000000	      0.50000000	      0.00000000	      0.25000000	     88.30360790	      1.35952812	      0.69022928	     87.38791972	      1.52520693	      6.73198182	     -6.42025312	      0.00000000	      0.00000000	     57.43172894	    -13.78148082	     -0.32363376	     76.77911350	      1.34004833	    -13.63817781	    -11.29777683	      0.00000000	      0.00000000	    -55.04652516	     -1.86932543	      6.64336657	     89.78111848	     -1.22351929	     27.31668699	     30.96306056	     22.44295937	      0.00000000	      0.00000000	     89.56108132	     -0.99034066	     30.55853432	     30.36187884	     27.90281399	      0.00000000	      0.00000000
      0.07500000	    -17.16707762	     -3.12154487	     -6.36196099	      0.17347331	      1.04215420	     -0.30697761	      0.00000000	      0.50000000	      0.00000000	      0.25000000	     88.30595593	      1.36961205	      0.67650564	     87.38037323	      1.52507521	      6.68148007	     -6.43257602	      0.00000000	      0.00000000	     57.37780594	    -13.78905631	     -0.32561337	     76.81250477	      1.34063111	    -13.33144027	    -11.24628309	      0.00000000	      0.00000000	    -55.06739303	     -1.84847221	      6.66269158	     89.77914687	     -0.72899157	     24.89209392	     30.60836516	     24.95137868	      0.00000000	      0.00000000	     89.55665787	     -0.61685422	     28.65556783	     29.93724958	     29.56076453	      0.00000000	      0.00000000
